<svg width="24" height="24" viewBox="0 0 24 24" fill="none" xmlns="http://www.w3.org/2000/svg">
<path d="M3.75 10.5C4.16421 10.5 4.5 10.1642 4.5 9.75V5.56066L9.96967 11.0303C10.2626 11.3232 10.7374 11.3232 11.0303 11.0303C11.3232 10.7374 11.3232 10.2626 11.0303 9.96967L5.56066 4.5H9.75C10.1642 4.5 10.5 4.16421 10.5 3.75C10.5 3.33579 10.1642 3 9.75 3H3.75C3.33579 3 3 3.33579 3 3.75V9.75C3 10.1642 3.33579 10.5 3.75 10.5Z" fill="#4B5563"/>
<path d="M20.25 13.5C19.8358 13.5 19.5 13.8358 19.5 14.25V18.4393L14.0303 12.9697C13.7374 12.6768 13.2626 12.6768 12.9697 12.9697C12.6768 13.2626 12.6768 13.7374 12.9697 14.0303L18.4393 19.5H14.25C13.8358 19.5 13.5 19.8358 13.5 20.25C13.5 20.6642 13.8358 21 14.25 21H20.25C20.6642 21 21 20.6642 21 20.25V14.25C21 13.8358 20.6642 13.5 20.25 13.5Z" fill="#4B5563"/>
</svg>
